<svg width="49" height="60" viewBox="0 0 49 60" fill="none" xmlns="http://www.w3.org/2000/svg">
<path d="M45.9632 51.8222C45.9632 50.9855 46.6418 50.3069 47.4785 50.3069C48.3156 50.3069 48.9938 50.9855 48.9938 51.8222C49.0758 53.8283 48.3473 55.7833 46.9724 57.2461C45.597 58.7095 43.6916 59.5579 41.6841 59.6007H7.97448C5.89476 59.5956 3.8988 58.7809 2.41015 57.3286C0.92149 55.8763 0.0569115 53.9015 0.000198364 51.8222V15.7162C0.0111885 15.6207 0.0331764 15.5264 0.0648842 15.4355C0.0763016 15.337 0.0987091 15.2402 0.131264 15.1463V15.126V15.1264C0.171005 15.0634 0.21455 15.003 0.262745 14.9463C0.318554 14.8453 0.386616 14.751 0.46484 14.6656L0.486824 14.6474L0.527412 14.6131L16.0482 1.07084C16.8397 0.380423 17.8545 -8.65133e-05 18.9051 0.000335601H41.6841C43.6623 -0.0186899 45.562 0.771929 46.9424 2.18873C48.3228 3.60552 49.064 5.52495 48.9938 7.50196V43.5819C48.9938 44.4191 48.3156 45.0972 47.4785 45.0972C46.6418 45.0972 45.9632 44.4191 45.9632 43.5819V7.50196C46.0266 6.3313 45.6026 5.18672 44.7921 4.33989C43.9812 3.49304 42.8565 3.0191 41.6841 3.0309H18.9051C18.5867 3.0309 18.2794 3.14632 18.0401 3.35603L5.56062 14.2433H15.4481C15.9339 14.2433 16.3279 13.8501 16.3292 13.3648V9.80873C16.3292 8.97203 17.0073 8.29345 17.8444 8.29345C18.6812 8.29345 19.3597 8.97203 19.3597 9.80873V13.3585C19.3601 14.3964 18.9483 15.3921 18.2148 16.1265C17.4813 16.8609 16.486 17.2736 15.4481 17.274H3.03038L3.0308 51.8225C3.09126 53.0967 3.63709 54.2992 4.5567 55.1828C5.47627 56.0664 6.69941 56.5645 7.97453 56.5746H41.6842C42.8836 56.5167 44.0099 55.9823 44.8137 55.0897C45.617 54.1976 46.0309 53.0215 45.9632 51.8223L45.9632 51.8222Z" fill="#B9AFAF"/>
<path d="M9.91251 31.7965C9.91251 30.9598 10.5907 30.2812 11.4278 30.2812H37.5697C38.4064 30.2812 39.085 30.9598 39.085 31.7965C39.085 32.6337 38.4064 33.3118 37.5697 33.3118H11.4278C10.5907 33.3118 9.91251 32.6337 9.91251 31.7965Z" fill="#B9AFAF"/>
<path d="M33.1322 40.5273C33.9689 40.5273 34.6475 41.2059 34.6475 42.0426C34.6475 42.8793 33.9689 43.5579 33.1322 43.5579H15.8644C15.0273 43.5579 14.3492 42.8793 14.3492 42.0426C14.3492 41.2059 15.0273 40.5273 15.8644 40.5273H33.1322Z" fill="#B9AFAF"/>
</svg>
